solid Visualization Toolkit generated SLA File
 facet normal 0.273351 0.935882 -0.222268
  outer loop
   vertex 0.006 -0.031255 -0.003181
   vertex 0.006 -0.02852 0.008335
   vertex 0.01646 -0.031255 0.009683
  endloop
 endfacet
 facet normal 0.162142 0.97792 -0.131841
  outer loop
   vertex 0.006 -0.031255 -0.003181
   vertex 0.01646 -0.031255 0.009683
   vertex 0.027593 -0.03399 0.003088
  endloop
 endfacet
 facet normal 0.125657 0.992074 0
  outer loop
   vertex 0.006 -0.031255 -0.003181
   vertex 0.027593 -0.03399 0.003088
   vertex 0.027593 -0.03399 -0.009449
  endloop
 endfacet
 facet normal 0.0586121 0.973124 -0.2227
  outer loop
   vertex 0.006 -0.031255 -0.003181
   vertex 0.027593 -0.03399 -0.009449
   vertex 0.016009 -0.034675 -0.015491
  endloop
 endfacet
 facet normal -0.143068 0.917458 -0.371216
  outer loop
   vertex 0.006 -0.031255 -0.003181
   vertex 0.016009 -0.034675 -0.015491
   vertex 0.006 -0.035359 -0.013324
  endloop
 endfacet
 facet normal 0.232157 0.901668 -0.364827
  outer loop
   vertex 0.006 -0.031255 -0.003181
   vertex 0.006 -0.035359 -0.013324
   vertex -0.007525 -0.034503 -0.019815
  endloop
 endfacet
 facet normal -0.0205045 0.984263 -0.175518
  outer loop
   vertex 0.006 -0.031255 -0.003181
   vertex -0.007525 -0.034503 -0.019815
   vertex -0.026973 -0.033649 -0.012754
  endloop
 endfacet
 facet normal -0.0724143 0.997375 0
  outer loop
   vertex 0.006 -0.031255 -0.003181
   vertex -0.026973 -0.033649 -0.012754
   vertex -0.026973 -0.033649 0.006393
  endloop
 endfacet
 facet normal -0.0979718 0.99115 -0.089577
  outer loop
   vertex 0.006 -0.031255 -0.003181
   vertex -0.026973 -0.033649 0.006393
   vertex -0.007977 -0.031083 0.014009
  endloop
 endfacet
 facet normal -0.262656 0.938777 -0.222956
  outer loop
   vertex 0.006 -0.031255 -0.003181
   vertex -0.007977 -0.031083 0.014009
   vertex 0.006 -0.02852 0.008335
  endloop
 endfacet
 facet normal 0.30187 0.845955 0.439585
  outer loop
   vertex 0.006 -0.02852 0.008335
   vertex 0.006 -0.038777 0.028074
   vertex 0.023854 -0.040317 0.018777
  endloop
 endfacet
 facet normal 0.111125 0.747679 0.654696
  outer loop
   vertex 0.006 -0.02852 0.008335
   vertex 0.023854 -0.040317 0.018777
   vertex 0.01646 -0.031255 0.009683
  endloop
 endfacet
 facet normal 0.0244595 0.887085 0.460957
  outer loop
   vertex -0.007977 -0.031083 0.014009
   vertex 0.006 -0.038777 0.028074
   vertex 0.006 -0.02852 0.008335
  endloop
 endfacet
 facet normal 0.642278 0.736622 0.211817
  outer loop
   vertex 0.01646 -0.031255 0.009683
   vertex 0.023854 -0.040317 0.018777
   vertex 0.030512 -0.041855 0.003937
  endloop
 endfacet
 facet normal 0.53941 0.285699 0.792094
  outer loop
   vertex 0.01646 -0.031255 0.009683
   vertex 0.030512 -0.041855 0.003937
   vertex 0.027593 -0.03399 0.003088
  endloop
 endfacet
 facet normal 0.937514 0.347947 0
  outer loop
   vertex 0.027593 -0.03399 0.003088
   vertex 0.030512 -0.041855 0.003937
   vertex 0.030512 -0.041855 -0.010298
  endloop
 endfacet
 facet normal 0.937514 0.347947 0
  outer loop
   vertex 0.027593 -0.03399 0.003088
   vertex 0.030512 -0.041855 -0.010298
   vertex 0.027593 -0.03399 -0.009449
  endloop
 endfacet
 facet normal 0.678492 0.323034 -0.659771
  outer loop
   vertex 0.027593 -0.03399 -0.009449
   vertex 0.030512 -0.041855 -0.010298
   vertex 0.019165 -0.036555 -0.019372
  endloop
 endfacet
 facet normal 0.126265 0.929169 -0.347423
  outer loop
   vertex 0.027593 -0.03399 -0.009449
   vertex 0.019165 -0.036555 -0.019372
   vertex 0.016009 -0.034675 -0.015491
  endloop
 endfacet
 facet normal 0.37714 0.915965 -0.137016
  outer loop
   vertex 0.016009 -0.034675 -0.015491
   vertex 0.019165 -0.036555 -0.019372
   vertex 0.006 -0.031255 -0.020178
  endloop
 endfacet
 facet normal 0.0525195 0.856772 0.513013
  outer loop
   vertex 0.016009 -0.034675 -0.015491
   vertex 0.006 -0.031255 -0.020178
   vertex 0.006 -0.035359 -0.013324
  endloop
 endfacet
 facet normal -0.188792 0.842528 0.504484
  outer loop
   vertex 0.006 -0.031255 -0.020178
   vertex -0.007525 -0.034503 -0.019815
   vertex 0.006 -0.035359 -0.013324
  endloop
 endfacet
 facet normal -0.607137 0.559961 -0.563762
  outer loop
   vertex -0.007525 -0.034503 -0.019815
   vertex -0.011132 -0.042881 -0.024252
   vertex -0.031351 -0.054507 -0.014025
  endloop
 endfacet
 facet normal -0.333583 0.12694 -0.934135
  outer loop
   vertex -0.007525 -0.034503 -0.019815
   vertex -0.031351 -0.054507 -0.014025
   vertex -0.026973 -0.033649 -0.012754
  endloop
 endfacet
 facet normal -0.145506 0.511235 -0.847034
  outer loop
   vertex 0.006 -0.031255 -0.020178
   vertex -0.011132 -0.042881 -0.024252
   vertex -0.007525 -0.034503 -0.019815
  endloop
 endfacet
 facet normal -0.978674 0.205419 0
  outer loop
   vertex -0.026973 -0.033649 -0.012754
   vertex -0.031351 -0.054507 -0.014025
   vertex -0.031351 -0.054507 0.007664
  endloop
 endfacet
 facet normal -0.978674 0.205419 0
  outer loop
   vertex -0.026973 -0.033649 -0.012754
   vertex -0.031351 -0.054507 0.007664
   vertex -0.026973 -0.033649 0.006393
  endloop
 endfacet
 facet normal -0.749914 0.195907 0.631862
  outer loop
   vertex -0.026973 -0.033649 0.006393
   vertex -0.031351 -0.054507 0.007664
   vertex -0.015821 -0.046642 0.023657
  endloop
 endfacet
 facet normal -0.363351 0.616381 0.698606
  outer loop
   vertex -0.026973 -0.033649 0.006393
   vertex -0.015821 -0.046642 0.023657
   vertex -0.007977 -0.031083 0.014009
  endloop
 endfacet
 facet normal -0.363558 0.616405 0.698477
  outer loop
   vertex -0.007977 -0.031083 0.014009
   vertex -0.015821 -0.046642 0.023657
   vertex 0.006 -0.038777 0.028074
  endloop
 endfacet
 facet normal 0.499974 0.14172 0.854366
  outer loop
   vertex 0.006 -0.038777 0.028074
   vertex 0.006 -0.048694 0.029719
   vertex 0.024485 -0.052627 0.019554
  endloop
 endfacet
 facet normal 0.465782 0.079504 0.881321
  outer loop
   vertex 0.006 -0.038777 0.028074
   vertex 0.024485 -0.052627 0.019554
   vertex 0.023854 -0.040317 0.018777
  endloop
 endfacet
 facet normal -0.25043 0.158426 0.955084
  outer loop
   vertex -0.015821 -0.046642 0.023657
   vertex 0.006 -0.048694 0.029719
   vertex 0.006 -0.038777 0.028074
  endloop
 endfacet
 facet normal 0.930081 0.0704321 0.360539
  outer loop
   vertex 0.023854 -0.040317 0.018777
   vertex 0.024485 -0.052627 0.019554
   vertex 0.030804 -0.056559 0.004021
  endloop
 endfacet
 facet normal 0.91298 0.0204584 0.40749
  outer loop
   vertex 0.023854 -0.040317 0.018777
   vertex 0.030804 -0.056559 0.004021
   vertex 0.030512 -0.041855 0.003937
  endloop
 endfacet
 facet normal 0.999803 0.0198547 0
  outer loop
   vertex 0.030512 -0.041855 0.003937
   vertex 0.030804 -0.056559 0.004021
   vertex 0.030804 -0.056559 -0.010382
  endloop
 endfacet
 facet normal 0.999803 0.0198547 0
  outer loop
   vertex 0.030512 -0.041855 0.003937
   vertex 0.030804 -0.056559 -0.010382
   vertex 0.030512 -0.041855 -0.010298
  endloop
 endfacet
 facet normal 0.9336 0.0205836 -0.357726
  outer loop
   vertex 0.030512 -0.041855 -0.010298
   vertex 0.030804 -0.056559 -0.010382
   vertex 0.024576 -0.045959 -0.026026
  endloop
 endfacet
 facet normal 0.634216 0.655274 -0.410348
  outer loop
   vertex 0.030512 -0.041855 -0.010298
   vertex 0.024576 -0.045959 -0.026026
   vertex 0.019165 -0.036555 -0.019372
  endloop
 endfacet
 facet normal 0.615936 0.659406 -0.431053
  outer loop
   vertex 0.019165 -0.036555 -0.019372
   vertex 0.024576 -0.045959 -0.026026
   vertex 0.006 -0.035359 -0.036354
  endloop
 endfacet
 facet normal 0.375602 0.89832 -0.227912
  outer loop
   vertex 0.019165 -0.036555 -0.019372
   vertex 0.006 -0.035359 -0.036354
   vertex 0.006 -0.031255 -0.020178
  endloop
 endfacet
 facet normal -0.532928 0.820175 -0.208086
  outer loop
   vertex 0.006 -0.031255 -0.020178
   vertex 0.006 -0.035359 -0.036354
   vertex -0.015371 -0.047497 -0.029463
  endloop
 endfacet
 facet normal -0.47249 0.814355 -0.337013
  outer loop
   vertex 0.006 -0.031255 -0.020178
   vertex -0.015371 -0.047497 -0.029463
   vertex -0.011132 -0.042881 -0.024252
  endloop
 endfacet
 facet normal -0.570691 0.787353 -0.23321
  outer loop
   vertex -0.011132 -0.042881 -0.024252
   vertex -0.015371 -0.047497 -0.029463
   vertex -0.031351 -0.054507 -0.014025
  endloop
 endfacet
 facet normal -0.49166 -0.479703 -0.726743
  outer loop
   vertex -0.015371 -0.047497 -0.029463
   vertex -0.02785 -0.059636 -0.013008
   vertex -0.031351 -0.054507 -0.014025
  endloop
 endfacet
 facet normal -0.825931 -0.563771 0
  outer loop
   vertex -0.031351 -0.054507 -0.014025
   vertex -0.02785 -0.059636 -0.013008
   vertex -0.02785 -0.059636 0.006647
  endloop
 endfacet
 facet normal -0.825931 -0.563771 0
  outer loop
   vertex -0.031351 -0.054507 -0.014025
   vertex -0.02785 -0.059636 0.006647
   vertex -0.031351 -0.054507 0.007664
  endloop
 endfacet
 facet normal -0.583056 -0.52151 0.622955
  outer loop
   vertex -0.031351 -0.054507 0.007664
   vertex -0.02785 -0.059636 0.006647
   vertex -0.01528 -0.054165 0.022992
  endloop
 endfacet
 facet normal -0.68451 -0.112888 0.72021
  outer loop
   vertex -0.031351 -0.054507 0.007664
   vertex -0.01528 -0.054165 0.022992
   vertex -0.015821 -0.046642 0.023657
  endloop
 endfacet
 facet normal -0.275301 -0.104276 0.955686
  outer loop
   vertex -0.015821 -0.046642 0.023657
   vertex -0.01528 -0.054165 0.022992
   vertex 0.006 -0.048694 0.029719
  endloop
 endfacet
 facet normal 0.175129 -0.29106 0.940539
  outer loop
   vertex 0.006 -0.048694 0.029719
   vertex 0.006 -0.068186 0.023687
   vertex 0.024937 -0.068357 0.020108
  endloop
 endfacet
 facet normal 0.488663 0.0447292 0.871325
  outer loop
   vertex 0.006 -0.048694 0.029719
   vertex 0.024937 -0.068357 0.020108
   vertex 0.024485 -0.052627 0.019554
  endloop
 endfacet
 facet normal -0.220426 -0.288357 0.931806
  outer loop
   vertex -0.01528 -0.054165 0.022992
   vertex 0.006 -0.068186 0.023687
   vertex 0.006 -0.048694 0.029719
  endloop
 endfacet
 facet normal 0.70805 0.0451654 0.704716
  outer loop
   vertex 0.024485 -0.052627 0.019554
   vertex 0.024937 -0.068357 0.020108
   vertex 0.038683 -0.068529 0.006308
  endloop
 endfacet
 facet normal 0.804441 0.564719 0.184303
  outer loop
   vertex 0.024485 -0.052627 0.019554
   vertex 0.038683 -0.068529 0.006308
   vertex 0.030804 -0.056559 0.004021
  endloop
 endfacet
 facet normal 0.835289 0.549811 0
  outer loop
   vertex 0.030804 -0.056559 0.004021
   vertex 0.038683 -0.068529 0.006308
   vertex 0.038683 -0.068529 -0.012669
  endloop
 endfacet
 facet normal 0.835289 0.549811 0
  outer loop
   vertex 0.030804 -0.056559 0.004021
   vertex 0.038683 -0.068529 -0.012669
   vertex 0.030804 -0.056559 -0.010382
  endloop
 endfacet
 facet normal 0.767756 0.563597 -0.30481
  outer loop
   vertex 0.030804 -0.056559 -0.010382
   vertex 0.038683 -0.068529 -0.012669
   vertex 0.027371 -0.062202 -0.029463
  endloop
 endfacet
 facet normal 0.948784 0.212692 -0.233604
  outer loop
   vertex 0.030804 -0.056559 -0.010382
   vertex 0.027371 -0.062202 -0.029463
   vertex 0.024576 -0.045959 -0.026026
  endloop
 endfacet
 facet normal 0.403903 0.255377 -0.878433
  outer loop
   vertex 0.024576 -0.045959 -0.026026
   vertex 0.027371 -0.062202 -0.029463
   vertex 0.006 -0.055875 -0.03745
  endloop
 endfacet
 facet normal 0.505352 0.0460326 -0.861684
  outer loop
   vertex 0.024576 -0.045959 -0.026026
   vertex 0.006 -0.055875 -0.03745
   vertex 0.006 -0.035359 -0.036354
  endloop
 endfacet
 facet normal -0.473963 0.0469732 -0.879291
  outer loop
   vertex 0.006 -0.035359 -0.036354
   vertex 0.006 -0.055875 -0.03745
   vertex -0.013477 -0.059294 -0.027134
  endloop
 endfacet
 facet normal -0.184672 -0.218807 -0.958134
  outer loop
   vertex 0.006 -0.035359 -0.036354
   vertex -0.013477 -0.059294 -0.027134
   vertex -0.015371 -0.047497 -0.029463
  endloop
 endfacet
 facet normal -0.874997 -0.225099 -0.428615
  outer loop
   vertex -0.015371 -0.047497 -0.029463
   vertex -0.013477 -0.059294 -0.027134
   vertex -0.020554 -0.062715 -0.01089
  endloop
 endfacet
 facet normal -0.127667 -0.749419 -0.649671
  outer loop
   vertex -0.015371 -0.047497 -0.029463
   vertex -0.020554 -0.062715 -0.01089
   vertex -0.02785 -0.059636 -0.013008
  endloop
 endfacet
 facet normal -0.388808 -0.921319 0
  outer loop
   vertex -0.02785 -0.059636 -0.013008
   vertex -0.020554 -0.062715 -0.01089
   vertex -0.020554 -0.062715 0.004528
  endloop
 endfacet
 facet normal -0.388808 -0.921319 0
  outer loop
   vertex -0.02785 -0.059636 -0.013008
   vertex -0.020554 -0.062715 0.004528
   vertex -0.02785 -0.059636 0.006647
  endloop
 endfacet
 facet normal -0.369425 -0.92631 0.0739901
  outer loop
   vertex -0.02785 -0.059636 0.006647
   vertex -0.020554 -0.062715 0.004528
   vertex -0.011042 -0.06545 0.01778
  endloop
 endfacet
 facet normal -0.590568 -0.510456 0.625032
  outer loop
   vertex -0.02785 -0.059636 0.006647
   vertex -0.011042 -0.06545 0.01778
   vertex -0.01528 -0.054165 0.022992
  endloop
 endfacet
 facet normal -0.354273 -0.498468 0.791214
  outer loop
   vertex -0.01528 -0.054165 0.022992
   vertex -0.011042 -0.06545 0.01778
   vertex 0.006 -0.068186 0.023687
  endloop
 endfacet
 facet normal -0.213325 -0.654309 0.725515
  outer loop
   vertex 0.006 -0.068186 0.023687
   vertex 0.006 -0.079129 0.013818
   vertex 0.022682 -0.080667 0.017336
  endloop
 endfacet
 facet normal 0.177796 -0.247067 0.952547
  outer loop
   vertex 0.006 -0.068186 0.023687
   vertex 0.022682 -0.080667 0.017336
   vertex 0.024937 -0.068357 0.020108
  endloop
 endfacet
 facet normal -0.342808 -0.629144 0.697611
  outer loop
   vertex -0.011042 -0.06545 0.01778
   vertex 0.006 -0.079129 0.013818
   vertex 0.006 -0.068186 0.023687
  endloop
 endfacet
 facet normal 0.486765 -0.27581 0.828848
  outer loop
   vertex 0.022682 -0.080667 0.017336
   vertex 0.039 -0.082205 0.007241
   vertex 0.024937 -0.068357 0.020108
  endloop
 endfacet
 facet normal 0.707421 0.0644154 0.70385
  outer loop
   vertex 0.024937 -0.068357 0.020108
   vertex 0.039 -0.082205 0.007241
   vertex 0.038683 -0.068529 0.006308
  endloop
 endfacet
 facet normal 0.999731 0.0231731 -0
  outer loop
   vertex 0.039 -0.082205 0.007241
   vertex 0.039 -0.082205 -0.013603
   vertex 0.038683 -0.068529 0.006308
  endloop
 endfacet
 facet normal 0.999731 0.0231731 0
  outer loop
   vertex 0.038683 -0.068529 0.006308
   vertex 0.039 -0.082205 -0.013603
   vertex 0.038683 -0.068529 -0.012669
  endloop
 endfacet
 facet normal 0.87328 0.0533167 -0.484293
  outer loop
   vertex 0.039 -0.082205 -0.013603
   vertex 0.028633 -0.07058 -0.031017
   vertex 0.038683 -0.068529 -0.012669
  endloop
 endfacet
 facet normal 0.845536 0.217786 -0.487482
  outer loop
   vertex 0.038683 -0.068529 -0.012669
   vertex 0.028633 -0.07058 -0.031017
   vertex 0.027371 -0.062202 -0.029463
  endloop
 endfacet
 facet normal 0.400399 0.225074 -0.888269
  outer loop
   vertex 0.027371 -0.062202 -0.029463
   vertex 0.028633 -0.07058 -0.031017
   vertex 0.006 -0.058953 -0.038273
  endloop
 endfacet
 facet normal 0.400835 0.236648 -0.885059
  outer loop
   vertex 0.027371 -0.062202 -0.029463
   vertex 0.006 -0.058953 -0.038273
   vertex 0.006 -0.055875 -0.03745
  endloop
 endfacet
 facet normal -0.680327 0.189315 -0.708036
  outer loop
   vertex 0.006 -0.055875 -0.03745
   vertex 0.006 -0.058953 -0.038273
   vertex -0.011312 -0.069554 -0.024473
  endloop
 endfacet
 facet normal -0.402381 -0.308458 -0.861942
  outer loop
   vertex 0.006 -0.055875 -0.03745
   vertex -0.011312 -0.069554 -0.024473
   vertex -0.013477 -0.059294 -0.027134
  endloop
 endfacet
 facet normal -0.930507 -0.262579 -0.255359
  outer loop
   vertex -0.013477 -0.059294 -0.027134
   vertex -0.011312 -0.069554 -0.024473
   vertex -0.012676 -0.080155 -0.008602
  endloop
 endfacet
 facet normal -0.797612 -0.417419 -0.435403
  outer loop
   vertex -0.013477 -0.059294 -0.027134
   vertex -0.012676 -0.080155 -0.008602
   vertex -0.020554 -0.062715 -0.01089
  endloop
 endfacet
 facet normal -0.911334 -0.411668 0
  outer loop
   vertex -0.020554 -0.062715 -0.01089
   vertex -0.012676 -0.080155 -0.008602
   vertex -0.012676 -0.080155 0.002242
  endloop
 endfacet
 facet normal -0.911334 -0.411668 0
  outer loop
   vertex -0.020554 -0.062715 -0.01089
   vertex -0.012676 -0.080155 0.002242
   vertex -0.020554 -0.062715 0.004528
  endloop
 endfacet
 facet normal -0.687767 -0.390861 0.611722
  outer loop
   vertex -0.020554 -0.062715 0.004528
   vertex -0.012676 -0.080155 0.002242
   vertex -0.005362 -0.079642 0.010793
  endloop
 endfacet
 facet normal -0.745264 -0.50983 0.429714
  outer loop
   vertex -0.020554 -0.062715 0.004528
   vertex -0.005362 -0.079642 0.010793
   vertex -0.011042 -0.06545 0.01778
  endloop
 endfacet
 facet normal -0.202315 -0.496542 0.844106
  outer loop
   vertex -0.011042 -0.06545 0.01778
   vertex -0.005362 -0.079642 0.010793
   vertex 0.006 -0.079129 0.013818
  endloop
 endfacet
 facet normal -0.278833 -0.105911 0.954482
  outer loop
   vertex 0.006 -0.079129 0.013818
   vertex 0.006 -0.133499 0.007785
   vertex 0.019616 -0.117256 0.013565
  endloop
 endfacet
 facet normal -0.21292 -0.082499 0.97358
  outer loop
   vertex 0.006 -0.079129 0.013818
   vertex 0.019616 -0.117256 0.013565
   vertex 0.022682 -0.080667 0.017336
  endloop
 endfacet
 facet normal -0.251303 -0.106746 0.962004
  outer loop
   vertex -0.005362 -0.079642 0.010793
   vertex 0.006 -0.133499 0.007785
   vertex 0.006 -0.079129 0.013818
  endloop
 endfacet
 facet normal 0.455936 -0.128965 0.880619
  outer loop
   vertex 0.019616 -0.117256 0.013565
   vertex 0.038389 -0.101014 0.006224
   vertex 0.022682 -0.080667 0.017336
  endloop
 endfacet
 facet normal 0.520764 -0.0629505 0.851377
  outer loop
   vertex 0.022682 -0.080667 0.017336
   vertex 0.038389 -0.101014 0.006224
   vertex 0.039 -0.082205 0.007241
  endloop
 endfacet
 facet normal 0.999473 -0.0324673 0
  outer loop
   vertex 0.038389 -0.101014 0.006224
   vertex 0.038389 -0.101014 -0.012585
   vertex 0.039 -0.082205 0.007241
  endloop
 endfacet
 facet normal 0.999473 -0.0324673 0
  outer loop
   vertex 0.039 -0.082205 0.007241
   vertex 0.038389 -0.101014 -0.012585
   vertex 0.039 -0.082205 -0.013603
  endloop
 endfacet
 facet normal 0.638792 -0.0622554 -0.766856
  outer loop
   vertex 0.038389 -0.101014 -0.012585
   vertex 0.024304 -0.084087 -0.025692
   vertex 0.039 -0.082205 -0.013603
  endloop
 endfacet
 facet normal 0.600393 -0.452403 -0.659439
  outer loop
   vertex 0.039 -0.082205 -0.013603
   vertex 0.024304 -0.084087 -0.025692
   vertex 0.028633 -0.07058 -0.031017
  endloop
 endfacet
 facet normal -0.156133 -0.318557 -0.934957
  outer loop
   vertex 0.028633 -0.07058 -0.031017
   vertex 0.024304 -0.084087 -0.025692
   vertex 0.006 -0.067159 -0.028403
  endloop
 endfacet
 facet normal -0.186722 -0.755425 -0.628067
  outer loop
   vertex 0.028633 -0.07058 -0.031017
   vertex 0.006 -0.067159 -0.028403
   vertex 0.006 -0.058953 -0.038273
  endloop
 endfacet
 facet normal 0.837655 -0.42 -0.349191
  outer loop
   vertex 0.006 -0.058953 -0.038273
   vertex 0.006 -0.067159 -0.028403
   vertex -0.007256 -0.101014 -0.019482
  endloop
 endfacet
 facet normal -0.533356 -0.199187 -0.822105
  outer loop
   vertex 0.006 -0.058953 -0.038273
   vertex -0.007256 -0.101014 -0.019482
   vertex -0.011312 -0.069554 -0.024473
  endloop
 endfacet
 facet normal -0.645619 -0.200153 -0.736964
  outer loop
   vertex -0.011312 -0.069554 -0.024473
   vertex -0.007256 -0.101014 -0.019482
   vertex -0.010049 -0.134867 -0.007841
  endloop
 endfacet
 facet normal -0.991774 -0.0492633 -0.118141
  outer loop
   vertex -0.011312 -0.069554 -0.024473
   vertex -0.010049 -0.134867 -0.007841
   vertex -0.012676 -0.080155 -0.008602
  endloop
 endfacet
 facet normal -0.998849 -0.0479598 0
  outer loop
   vertex -0.012676 -0.080155 -0.008602
   vertex -0.010049 -0.134867 -0.007841
   vertex -0.010049 -0.134867 0.00148
  endloop
 endfacet
 facet normal -0.998849 -0.0479598 0
  outer loop
   vertex -0.012676 -0.080155 -0.008602
   vertex -0.010049 -0.134867 0.00148
   vertex -0.012676 -0.080155 0.002242
  endloop
 endfacet
 facet normal -0.614731 -0.040487 0.787697
  outer loop
   vertex -0.012676 -0.080155 0.002242
   vertex -0.010049 -0.134867 0.00148
   vertex -0.002566 -0.134183 0.007355
  endloop
 endfacet
 facet normal -0.755147 -0.0797283 0.650689
  outer loop
   vertex -0.012676 -0.080155 0.002242
   vertex -0.002566 -0.134183 0.007355
   vertex -0.005362 -0.079642 0.010793
  endloop
 endfacet
 facet normal -0.04484 -0.0651364 0.996868
  outer loop
   vertex -0.005362 -0.079642 0.010793
   vertex -0.002566 -0.134183 0.007355
   vertex 0.006 -0.133499 0.007785
  endloop
 endfacet
 facet normal -0.314076 -0.0179359 0.949229
  outer loop
   vertex 0.006 -0.133499 0.007785
   vertex 0.006 -0.235059 0.005866
   vertex 0.017092 -0.186161 0.01046
  endloop
 endfacet
 facet normal -0.361322 -0.0287625 0.931997
  outer loop
   vertex 0.006 -0.133499 0.007785
   vertex 0.017092 -0.186161 0.01046
   vertex 0.019616 -0.117256 0.013565
  endloop
 endfacet
 facet normal -0.0486234 -0.0188695 0.998639
  outer loop
   vertex -0.002566 -0.134183 0.007355
   vertex 0.006 -0.235059 0.005866
   vertex 0.006 -0.133499 0.007785
  endloop
 endfacet
 facet normal 0.522559 -0.0574741 0.850664
  outer loop
   vertex 0.019616 -0.117256 0.013565
   vertex 0.017092 -0.186161 0.01046
   vertex 0.032262 -0.137261 0.004445
  endloop
 endfacet
 facet normal 0.4495 -0.11943 0.88526
  outer loop
   vertex 0.019616 -0.117256 0.013565
   vertex 0.032262 -0.137261 0.004445
   vertex 0.038389 -0.101014 0.006224
  endloop
 endfacet
 facet normal 0.986013 -0.16667 0
  outer loop
   vertex 0.038389 -0.101014 0.006224
   vertex 0.032262 -0.137261 0.004445
   vertex 0.032262 -0.137261 -0.010806
  endloop
 endfacet
 facet normal 0.986013 -0.16667 0
  outer loop
   vertex 0.038389 -0.101014 0.006224
   vertex 0.032262 -0.137261 -0.010806
   vertex 0.038389 -0.101014 -0.012585
  endloop
 endfacet
 facet normal 0.423948 -0.115748 -0.89826
  outer loop
   vertex 0.038389 -0.101014 -0.012585
   vertex 0.032262 -0.137261 -0.010806
   vertex 0.019797 -0.110418 -0.020148
  endloop
 endfacet
 facet normal 0.47326 -0.258331 -0.842194
  outer loop
   vertex 0.038389 -0.101014 -0.012585
   vertex 0.019797 -0.110418 -0.020148
   vertex 0.024304 -0.084087 -0.025692
  endloop
 endfacet
 facet normal -0.27594 -0.152578 -0.948987
  outer loop
   vertex 0.024304 -0.084087 -0.025692
   vertex 0.019797 -0.110418 -0.020148
   vertex 0.006 -0.083575 -0.020452
  endloop
 endfacet
 facet normal -0.260521 -0.420853 -0.868914
  outer loop
   vertex 0.024304 -0.084087 -0.025692
   vertex 0.006 -0.083575 -0.020452
   vertex 0.006 -0.067159 -0.028403
  endloop
 endfacet
 facet normal 0.452628 -0.388697 -0.802522
  outer loop
   vertex -0.007256 -0.101014 -0.019482
   vertex 0.006 -0.067159 -0.028403
   vertex 0.006 -0.083575 -0.020452
  endloop
 endfacet
 facet normal -0.291625 -0.148199 -0.944982
  outer loop
   vertex -0.007256 -0.101014 -0.019482
   vertex -0.004641 -0.12666 -0.016267
   vertex -0.010049 -0.169746 -0.007841
  endloop
 endfacet
 facet normal -0.972403 0 -0.233307
  outer loop
   vertex -0.007256 -0.101014 -0.019482
   vertex -0.010049 -0.169746 -0.007841
   vertex -0.010049 -0.134867 -0.007841
  endloop
 endfacet
 facet normal 0.0800862 -0.115944 -0.990022
  outer loop
   vertex -0.007256 -0.101014 -0.019482
   vertex 0.006 -0.083575 -0.020452
   vertex -0.004641 -0.12666 -0.016267
  endloop
 endfacet
 facet normal -1 0 0
  outer loop
   vertex -0.010049 -0.134867 -0.007841
   vertex -0.010049 -0.169746 -0.007841
   vertex -0.010049 -0.169746 0.00148
  endloop
 endfacet
 facet normal -1 0 0
  outer loop
   vertex -0.010049 -0.134867 -0.007841
   vertex -0.010049 -0.169746 0.00148
   vertex -0.010049 -0.134867 0.00148
  endloop
 endfacet
 facet normal -0.532005 0 0.846741
  outer loop
   vertex -0.010049 -0.134867 0.00148
   vertex -0.010049 -0.169746 0.00148
   vertex -0.001935 -0.202403 0.006578
  endloop
 endfacet
 facet normal -0.616633 -0.0146685 0.787114
  outer loop
   vertex -0.010049 -0.134867 0.00148
   vertex -0.001935 -0.202403 0.006578
   vertex -0.002566 -0.134183 0.007355
  endloop
 endfacet
 facet normal 0.0445048 -0.010966 0.998949
  outer loop
   vertex -0.002566 -0.134183 0.007355
   vertex -0.001935 -0.202403 0.006578
   vertex 0.006 -0.235059 0.005866
  endloop
 endfacet
 facet normal -0.177169 0.0116675 0.984111
  outer loop
   vertex 0.006 -0.235059 0.005866
   vertex 0.006 -0.304476 0.006689
   vertex 0.014837 -0.25455 0.007688
  endloop
 endfacet
 facet normal -0.265518 -0.0303037 0.96363
  outer loop
   vertex 0.006 -0.235059 0.005866
   vertex 0.014837 -0.25455 0.007688
   vertex 0.017092 -0.186161 0.01046
  endloop
 endfacet
 facet normal 0.137202 0.0117429 0.990474
  outer loop
   vertex -0.001935 -0.202403 0.006578
   vertex 0.006 -0.304476 0.006689
   vertex 0.006 -0.235059 0.005866
  endloop
 endfacet
 facet normal 0.707578 -0.0518956 0.704727
  outer loop
   vertex 0.017092 -0.186161 0.01046
   vertex 0.014837 -0.25455 0.007688
   vertex 0.024092 -0.204625 0.002072
  endloop
 endfacet
 facet normal 0.638548 -0.104304 0.762481
  outer loop
   vertex 0.017092 -0.186161 0.01046
   vertex 0.024092 -0.204625 0.002072
   vertex 0.032262 -0.137261 0.004445
  endloop
 endfacet
 facet normal 0.992726 -0.120399 0
  outer loop
   vertex 0.032262 -0.137261 0.004445
   vertex 0.024092 -0.204625 0.002072
   vertex 0.024092 -0.204625 -0.008433
  endloop
 endfacet
 facet normal 0.992726 -0.120399 0
  outer loop
   vertex 0.032262 -0.137261 0.004445
   vertex 0.024092 -0.204625 -0.008433
   vertex 0.032262 -0.137261 -0.010806
  endloop
 endfacet
 facet normal 0.378861 -0.078432 -0.922124
  outer loop
   vertex 0.032262 -0.137261 -0.010806
   vertex 0.024092 -0.204625 -0.008433
   vertex 0.015558 -0.169404 -0.014935
  endloop
 endfacet
 facet normal 0.433152 -0.110187 -0.89456
  outer loop
   vertex 0.032262 -0.137261 -0.010806
   vertex 0.015558 -0.169404 -0.014935
   vertex 0.019797 -0.110418 -0.020148
  endloop
 endfacet
 facet normal -0.225452 -0.0696791 -0.971759
  outer loop
   vertex 0.019797 -0.110418 -0.020148
   vertex 0.015558 -0.169404 -0.014935
   vertex 0.006 -0.134183 -0.015243
  endloop
 endfacet
 facet normal -0.174562 -0.100815 -0.979472
  outer loop
   vertex 0.019797 -0.110418 -0.020148
   vertex 0.006 -0.134183 -0.015243
   vertex 0.006 -0.083575 -0.020452
  endloop
 endfacet
 facet normal 0.47709 -0.0899837 -0.874236
  outer loop
   vertex 0.006 -0.083575 -0.020452
   vertex 0.006 -0.134183 -0.015243
   vertex -0.001394 -0.202231 -0.012274
  endloop
 endfacet
 facet normal -0.150762 -0.0586196 -0.986831
  outer loop
   vertex 0.006 -0.083575 -0.020452
   vertex -0.001394 -0.202231 -0.012274
   vertex -0.004641 -0.12666 -0.016267
  endloop
 endfacet
 facet normal -0.324719 -0.0638126 -0.943655
  outer loop
   vertex -0.004641 -0.12666 -0.016267
   vertex -0.001394 -0.202231 -0.012274
   vertex -0.005088 -0.270283 -0.006401
  endloop
 endfacet
 facet normal -0.718935 -0.0454026 -0.693593
  outer loop
   vertex -0.007569 -0.220015 -0.007121
   vertex -0.010049 -0.169746 -0.007841
   vertex -0.004641 -0.12666 -0.016267
  endloop
 endfacet
 facet normal -0.718843 -0.0454147 -0.693687
  outer loop
   vertex -0.005088 -0.270283 -0.006401
   vertex -0.007569 -0.220015 -0.007121
   vertex -0.004641 -0.12666 -0.016267
  endloop
 endfacet
 facet normal -0.998785 -0.0492746 0
  outer loop
   vertex -0.010049 -0.169746 0.00148
   vertex -0.010049 -0.169746 -0.007841
   vertex -0.007569 -0.220015 -0.007121
  endloop
 endfacet
 facet normal -0.824835 -0.0487605 0.563266
  outer loop
   vertex -0.010049 -0.169746 0.00148
   vertex -0.007569 -0.220015 0.00076
   vertex -0.000673 -0.287377 0.005027
  endloop
 endfacet
 facet normal -0.597973 -0.0235044 0.801171
  outer loop
   vertex -0.010049 -0.169746 0.00148
   vertex -0.000673 -0.287377 0.005027
   vertex -0.001935 -0.202403 0.006578
  endloop
 endfacet
 facet normal -0.998785 -0.0492746 0
  outer loop
   vertex -0.010049 -0.169746 0.00148
   vertex -0.007569 -0.220015 -0.007121
   vertex -0.007569 -0.220015 0.00076
  endloop
 endfacet
 facet normal -0.293881 -0.0218067 0.955593
  outer loop
   vertex -0.001935 -0.202403 0.006578
   vertex -0.000673 -0.287377 0.005027
   vertex 0.006 -0.304476 0.006689
  endloop
 endfacet
 facet normal -0.0173864 0.0611535 0.997977
  outer loop
   vertex 0.006 -0.304476 0.006689
   vertex 0.006641 -0.368004 0.010593
   vertex 0.014927 -0.320036 0.007798
  endloop
 endfacet
 facet normal -0.120704 0.00150158 0.992687
  outer loop
   vertex 0.006 -0.304476 0.006689
   vertex 0.014927 -0.320036 0.007798
   vertex 0.014837 -0.25455 0.007688
  endloop
 endfacet
 facet normal -0.0934435 0.0601298 0.993807
  outer loop
   vertex -0.000673 -0.287377 0.005027
   vertex 0.006641 -0.368004 0.010593
   vertex 0.006 -0.304476 0.006689
  endloop
 endfacet
 facet normal 0.837829 0.00206849 0.545928
  outer loop
   vertex 0.014837 -0.25455 0.007688
   vertex 0.014927 -0.320036 0.007798
   vertex 0.019423 -0.27199 0.000716
  endloop
 endfacet
 facet normal 0.750892 -0.0652723 0.657192
  outer loop
   vertex 0.014837 -0.25455 0.007688
   vertex 0.019423 -0.27199 0.000716
   vertex 0.024092 -0.204625 0.002072
  endloop
 endfacet
 facet normal 0.997607 -0.0691431 0
  outer loop
   vertex 0.024092 -0.204625 0.002072
   vertex 0.019423 -0.27199 0.000716
   vertex 0.019423 -0.27199 -0.007078
  endloop
 endfacet
 facet normal 0.997607 -0.0691431 0
  outer loop
   vertex 0.024092 -0.204625 0.002072
   vertex 0.019423 -0.27199 -0.007078
   vertex 0.024092 -0.204625 -0.008433
  endloop
 endfacet
 facet normal 0.602274 -0.0577579 -0.796197
  outer loop
   vertex 0.024092 -0.204625 -0.008433
   vertex 0.019423 -0.27199 -0.007078
   vertex 0.013754 -0.253356 -0.012718
  endloop
 endfacet
 facet normal 0.514026 -0.0336802 -0.857113
  outer loop
   vertex 0.024092 -0.204625 -0.008433
   vertex 0.013754 -0.253356 -0.012718
   vertex 0.015558 -0.169404 -0.014935
  endloop
 endfacet
 facet normal 0.114085 -0.0286761 -0.993057
  outer loop
   vertex 0.015558 -0.169404 -0.014935
   vertex 0.013754 -0.253356 -0.012718
   vertex 0.006 -0.234718 -0.014147
  endloop
 endfacet
 facet normal -0.00794732 -0.0109007 -0.999909
  outer loop
   vertex 0.015558 -0.169404 -0.014935
   vertex 0.006 -0.234718 -0.014147
   vertex 0.006 -0.134183 -0.015243
  endloop
 endfacet
 facet normal 0.0406364 -0.010892 -0.999115
  outer loop
   vertex 0.006 -0.134183 -0.015243
   vertex 0.006 -0.234718 -0.014147
   vertex -0.002747 -0.286523 -0.013938
  endloop
 endfacet
 facet normal -0.564557 0.0253482 -0.825005
  outer loop
   vertex 0.006 -0.134183 -0.015243
   vertex -0.002747 -0.286523 -0.013938
   vertex -0.001394 -0.202231 -0.012274
  endloop
 endfacet
 facet normal -0.701728 0.0253191 -0.711995
  outer loop
   vertex -0.001394 -0.202231 -0.012274
   vertex -0.002747 -0.286523 -0.013938
   vertex -0.010632 -0.33833 -0.008009
  endloop
 endfacet
 facet normal -0.968141 0.0732187 0.239464
  outer loop
   vertex -0.001394 -0.202231 -0.012274
   vertex -0.010632 -0.33833 -0.008009
   vertex -0.005088 -0.270283 -0.006401
  endloop
 endfacet
 facet normal -0.998784 -0.0492954 0
  outer loop
   vertex -0.007569 -0.220015 0.00076
   vertex -0.005088 -0.270283 -0.006401
   vertex -0.005088 -0.270283 4e-05
  endloop
 endfacet
 facet normal -0.996697 0.081204 0
  outer loop
   vertex -0.005088 -0.270283 -0.006401
   vertex -0.010632 -0.33833 -0.008009
   vertex -0.010632 -0.33833 0.001648
  endloop
 endfacet
 facet normal -0.996697 0.081204 0
  outer loop
   vertex -0.005088 -0.270283 -0.006401
   vertex -0.010632 -0.33833 0.001648
   vertex -0.005088 -0.270283 4e-05
  endloop
 endfacet
 facet normal -0.998784 -0.0492954 0
  outer loop
   vertex -0.007569 -0.220015 0.00076
   vertex -0.007569 -0.220015 -0.007121
   vertex -0.005088 -0.270283 -0.006401
  endloop
 endfacet
 facet normal -0.824939 -0.0487808 0.563113
  outer loop
   vertex -0.007569 -0.220015 0.00076
   vertex -0.005088 -0.270283 4e-05
   vertex -0.000673 -0.287377 0.005027
  endloop
 endfacet
 facet normal -0.598851 0.0778659 0.797066
  outer loop
   vertex -0.005088 -0.270283 4e-05
   vertex -0.003919 -0.353205 0.009019
   vertex -0.000673 -0.287377 0.005027
  endloop
 endfacet
 facet normal -0.0596982 0.0633564 0.996204
  outer loop
   vertex -0.000673 -0.287377 0.005027
   vertex -0.003919 -0.353205 0.009019
   vertex 0.006641 -0.368004 0.010593
  endloop
 endfacet
 facet normal -0.226999 0.415397 0.880861
  outer loop
   vertex 0.006641 -0.368004 0.010593
   vertex 0.006 -0.390306 0.020945
   vertex 0.018624 -0.365173 0.012346
  endloop
 endfacet
 facet normal -0.163987 0.0855895 0.982743
  outer loop
   vertex 0.006641 -0.368004 0.010593
   vertex 0.018624 -0.365173 0.012346
   vertex 0.014927 -0.320036 0.007798
  endloop
 endfacet
 facet normal 0.402374 0.3759 0.834742
  outer loop
   vertex -0.003919 -0.353205 0.009019
   vertex 0.006 -0.390306 0.020945
   vertex 0.006641 -0.368004 0.010593
  endloop
 endfacet
 facet normal 0.874896 0.118963 0.469473
  outer loop
   vertex 0.014927 -0.320036 0.007798
   vertex 0.018624 -0.365173 0.012346
   vertex 0.021174 -0.340039 0.001225
  endloop
 endfacet
 facet normal 0.760702 0.0244257 0.648641
  outer loop
   vertex 0.014927 -0.320036 0.007798
   vertex 0.021174 -0.340039 0.001225
   vertex 0.019423 -0.27199 0.000716
  endloop
 endfacet
 facet normal 0.999669 0.0257229 0
  outer loop
   vertex 0.019423 -0.27199 0.000716
   vertex 0.021174 -0.340039 0.001225
   vertex 0.021174 -0.340039 -0.007586
  endloop
 endfacet
 facet normal 0.999669 0.0257229 0
  outer loop
   vertex 0.019423 -0.27199 0.000716
   vertex 0.021174 -0.340039 -0.007586
   vertex 0.019423 -0.27199 -0.007078
  endloop
 endfacet
 facet normal 0.716225 0.0236363 -0.697469
  outer loop
   vertex 0.019423 -0.27199 -0.007078
   vertex 0.021174 -0.340039 -0.007586
   vertex 0.014566 -0.32072 -0.013717
  endloop
 endfacet
 facet normal 0.735715 0.0189085 -0.677027
  outer loop
   vertex 0.019423 -0.27199 -0.007078
   vertex 0.014566 -0.32072 -0.013717
   vertex 0.013754 -0.253356 -0.012718
  endloop
 endfacet
 facet normal 0.181648 0.0167706 -0.983221
  outer loop
   vertex 0.013754 -0.253356 -0.012718
   vertex 0.014566 -0.32072 -0.013717
   vertex 0.006 -0.301399 -0.01497
  endloop
 endfacet
 facet normal 0.209208 0.0120683 -0.977797
  outer loop
   vertex 0.013754 -0.253356 -0.012718
   vertex 0.006 -0.301399 -0.01497
   vertex 0.006 -0.234718 -0.014147
  endloop
 endfacet
 facet normal -0.0991902 0.0122805 -0.994993
  outer loop
   vertex 0.006 -0.234718 -0.014147
   vertex 0.006 -0.301399 -0.01497
   vertex -0.003198 -0.336963 -0.014492
  endloop
 endfacet
 facet normal -0.0934995 0.0117705 -0.99555
  outer loop
   vertex 0.006 -0.234718 -0.014147
   vertex -0.003198 -0.336963 -0.014492
   vertex -0.002747 -0.286523 -0.013938
  endloop
 endfacet
 facet normal -0.656611 0.0141535 -0.754097
  outer loop
   vertex -0.002747 -0.286523 -0.013938
   vertex -0.003198 -0.336963 -0.014492
   vertex -0.011216 -0.372526 -0.008178
  endloop
 endfacet
 facet normal -0.66205 0.0150097 -0.74931
  outer loop
   vertex -0.002747 -0.286523 -0.013938
   vertex -0.011216 -0.372526 -0.008178
   vertex -0.010632 -0.33833 -0.008009
  endloop
 endfacet
 facet normal -0.999854 0.0170755 0
  outer loop
   vertex -0.010632 -0.33833 -0.008009
   vertex -0.011216 -0.372526 -0.008178
   vertex -0.011216 -0.372526 0.001817
  endloop
 endfacet
 facet normal -0.999854 0.0170755 0
  outer loop
   vertex -0.010632 -0.33833 -0.008009
   vertex -0.011216 -0.372526 0.001817
   vertex -0.010632 -0.33833 0.001648
  endloop
 endfacet
 facet normal -0.661352 0.0715265 0.746657
  outer loop
   vertex -0.005088 -0.270283 4e-05
   vertex -0.010632 -0.33833 0.001648
   vertex -0.003919 -0.353205 0.009019
  endloop
 endfacet
 facet normal -0.939183 0.0177343 0.342959
  outer loop
   vertex -0.010632 -0.33833 0.001648
   vertex -0.011216 -0.372526 0.001817
   vertex -0.007256 -0.381415 0.013121
  endloop
 endfacet
 facet normal -0.514856 0.182695 0.837583
  outer loop
   vertex -0.010632 -0.33833 0.001648
   vertex -0.007256 -0.381415 0.013121
   vertex -0.003919 -0.353205 0.009019
  endloop
 endfacet
 facet normal -0.408591 0.178488 0.895095
  outer loop
   vertex -0.003919 -0.353205 0.009019
   vertex -0.007256 -0.381415 0.013121
   vertex 0.006 -0.390306 0.020945
  endloop
 endfacet
 facet normal 0.41017 0.147683 0.899973
  outer loop
   vertex 0.006 -0.390306 0.020945
   vertex 0.006 -0.405352 0.023414
   vertex 0.020879 -0.396121 0.015118
  endloop
 endfacet
 facet normal 0.399608 0.110624 0.909987
  outer loop
   vertex 0.006 -0.390306 0.020945
   vertex 0.020879 -0.396121 0.015118
   vertex 0.018624 -0.365173 0.012346
  endloop
 endfacet
 facet normal -0.42819 0.146335 0.891762
  outer loop
   vertex -0.007256 -0.381415 0.013121
   vertex 0.006 -0.405352 0.023414
   vertex 0.006 -0.390306 0.020945
  endloop
 endfacet
 facet normal 0.896201 0.103933 0.431302
  outer loop
   vertex 0.018624 -0.365173 0.012346
   vertex 0.020879 -0.396121 0.015118
   vertex 0.025842 -0.386886 0.00258
  endloop
 endfacet
 facet normal 0.894642 0.101729 0.435049
  outer loop
   vertex 0.018624 -0.365173 0.012346
   vertex 0.025842 -0.386886 0.00258
   vertex 0.021174 -0.340039 0.001225
  endloop
 endfacet
 facet normal 0.995072 0.0991525 0
  outer loop
   vertex 0.021174 -0.340039 0.001225
   vertex 0.025842 -0.386886 0.00258
   vertex 0.025842 -0.386886 -0.008942
  endloop
 endfacet
 facet normal 0.995072 0.0991525 0
  outer loop
   vertex 0.021174 -0.340039 0.001225
   vertex 0.025842 -0.386886 -0.008942
   vertex 0.021174 -0.340039 -0.007586
  endloop
 endfacet
 facet normal 0.777751 0.095481 -0.621278
  outer loop
   vertex 0.021174 -0.340039 -0.007586
   vertex 0.025842 -0.386886 -0.008942
   vertex 0.017812 -0.378509 -0.017707
  endloop
 endfacet
 facet normal 0.80093 0.0859013 -0.592565
  outer loop
   vertex 0.021174 -0.340039 -0.007586
   vertex 0.017812 -0.378509 -0.017707
   vertex 0.014566 -0.32072 -0.013717
  endloop
 endfacet
 facet normal 0.28027 0.0817788 -0.956431
  outer loop
   vertex 0.014566 -0.32072 -0.013717
   vertex 0.017812 -0.378509 -0.017707
   vertex 0.006 -0.370131 -0.020452
  endloop
 endfacet
 facet normal 0.30921 0.0756103 -0.947983
  outer loop
   vertex 0.014566 -0.32072 -0.013717
   vertex 0.006 -0.370131 -0.020452
   vertex 0.006 -0.301399 -0.01497
  endloop
 endfacet
 facet normal -0.0317423 0.0794665 -0.996332
  outer loop
   vertex 0.006 -0.301399 -0.01497
   vertex 0.006 -0.370131 -0.020452
   vertex -0.008879 -0.388938 -0.021478
  endloop
 endfacet
 facet normal -0.69335 0.16991 -0.700283
  outer loop
   vertex 0.006 -0.301399 -0.01497
   vertex -0.008879 -0.388938 -0.021478
   vertex -0.003198 -0.336963 -0.014492
  endloop
 endfacet
 facet normal -0.974601 0.22313 0.019133
  outer loop
   vertex -0.011216 -0.372526 -0.008178
   vertex -0.003198 -0.336963 -0.014492
   vertex -0.012391 -0.377167 -0.013907
  endloop
 endfacet
 facet normal -0.769435 0.166967 -0.616515
  outer loop
   vertex -0.008879 -0.388938 -0.021478
   vertex -0.012391 -0.377167 -0.013907
   vertex -0.003198 -0.336963 -0.014492
  endloop
 endfacet
 facet normal -0.942001 0.335611 0
  outer loop
   vertex -0.011216 -0.372526 -0.008178
   vertex -0.023764 -0.407746 -0.011821
   vertex -0.023764 -0.407746 0.005459
  endloop
 endfacet
 facet normal -0.942001 0.335611 0
  outer loop
   vertex -0.011216 -0.372526 -0.008178
   vertex -0.023764 -0.407746 0.005459
   vertex -0.011216 -0.372526 0.001817
  endloop
 endfacet
 facet normal -0.935746 0.342205 -0.0852981
  outer loop
   vertex -0.023764 -0.407746 -0.011821
   vertex -0.011216 -0.372526 -0.008178
   vertex -0.012391 -0.377167 -0.013907
  endloop
 endfacet
 facet normal -0.724881 0.32127 0.609371
  outer loop
   vertex -0.011216 -0.372526 0.001817
   vertex -0.023764 -0.407746 0.005459
   vertex -0.011944 -0.40655 0.018889
  endloop
 endfacet
 facet normal -0.823721 0.268264 0.499517
  outer loop
   vertex -0.011216 -0.372526 0.001817
   vertex -0.011944 -0.40655 0.018889
   vertex -0.007256 -0.381415 0.013121
  endloop
 endfacet
 facet normal -0.252391 0.260902 0.931788
  outer loop
   vertex -0.007256 -0.381415 0.013121
   vertex -0.011944 -0.40655 0.018889
   vertex 0.006 -0.405352 0.023414
  endloop
 endfacet
 facet normal 0.396245 -0.477247 0.784363
  outer loop
   vertex 0.006 -0.405352 0.023414
   vertex 0.006 -0.415269 0.01738
   vertex 0.020788 -0.406891 0.015007
  endloop
 endfacet
 facet normal 0.493144 -0.0131317 0.869849
  outer loop
   vertex 0.006 -0.405352 0.023414
   vertex 0.020788 -0.406891 0.015007
   vertex 0.020879 -0.396121 0.015118
  endloop
 endfacet
 facet normal -0.177846 -0.511508 0.840673
  outer loop
   vertex -0.011944 -0.40655 0.018889
   vertex 0.006 -0.415269 0.01738
   vertex 0.006 -0.405352 0.023414
  endloop
 endfacet
 facet normal 0.694676 -0.0132819 0.7192
  outer loop
   vertex 0.020879 -0.396121 0.015118
   vertex 0.020788 -0.406891 0.015007
   vertex 0.03197 -0.398514 0.004361
  endloop
 endfacet
 facet normal 0.67121 0.44458 0.593149
  outer loop
   vertex 0.020879 -0.396121 0.015118
   vertex 0.03197 -0.398514 0.004361
   vertex 0.025842 -0.386886 0.00258
  endloop
 endfacet
 facet normal 0.884667 0.466223 0
  outer loop
   vertex 0.025842 -0.386886 0.00258
   vertex 0.03197 -0.398514 0.004361
   vertex 0.03197 -0.398514 -0.010722
  endloop
 endfacet
 facet normal 0.884667 0.466223 0
  outer loop
   vertex 0.025842 -0.386886 0.00258
   vertex 0.03197 -0.398514 -0.010722
   vertex 0.025842 -0.386886 -0.008942
  endloop
 endfacet
 facet normal 0.777824 0.473226 -0.413578
  outer loop
   vertex 0.025842 -0.386886 -0.008942
   vertex 0.03197 -0.398514 -0.010722
   vertex 0.022051 -0.392871 -0.02292
  endloop
 endfacet
 facet normal 0.833685 0.388517 -0.392458
  outer loop
   vertex 0.025842 -0.386886 -0.008942
   vertex 0.022051 -0.392871 -0.02292
   vertex 0.017812 -0.378509 -0.017707
  endloop
 endfacet
 facet normal 0.384846 0.413165 -0.825341
  outer loop
   vertex 0.017812 -0.378509 -0.017707
   vertex 0.022051 -0.392871 -0.02292
   vertex 0.006 -0.387229 -0.02758
  endloop
 endfacet
 facet normal 0.438146 0.345891 -0.829691
  outer loop
   vertex 0.017812 -0.378509 -0.017707
   vertex 0.006 -0.387229 -0.02758
   vertex 0.006 -0.370131 -0.020452
  endloop
 endfacet
 facet normal -0.479915 0.337583 -0.809765
  outer loop
   vertex 0.006 -0.370131 -0.020452
   vertex 0.006 -0.387229 -0.02758
   vertex -0.010321 -0.400052 -0.023253
  endloop
 endfacet
 facet normal -0.154584 0.175341 -0.972296
  outer loop
   vertex 0.006 -0.370131 -0.020452
   vertex -0.010321 -0.400052 -0.023253
   vertex -0.008879 -0.388938 -0.021478
  endloop
 endfacet
 facet normal -0.834857 0.190785 -0.516348
  outer loop
   vertex -0.008879 -0.388938 -0.021478
   vertex -0.010321 -0.400052 -0.023253
   vertex -0.020846 -0.412876 -0.010974
  endloop
 endfacet
 facet normal -0.237556 -0.288278 -0.927611
  outer loop
   vertex -0.008879 -0.388938 -0.021478
   vertex -0.020846 -0.412876 -0.010974
   vertex -0.023764 -0.407746 -0.011821
  endloop
 endfacet
 facet normal -0.710243 0.218505 -0.669186
  outer loop
   vertex -0.008879 -0.388938 -0.021478
   vertex -0.023764 -0.407746 -0.011821
   vertex -0.012391 -0.377167 -0.013907
  endloop
 endfacet
 facet normal -0.869223 -0.494421 0
  outer loop
   vertex -0.023764 -0.407746 -0.011821
   vertex -0.020846 -0.412876 -0.010974
   vertex -0.020846 -0.412876 0.004614
  endloop
 endfacet
 facet normal -0.869223 -0.494421 0
  outer loop
   vertex -0.023764 -0.407746 -0.011821
   vertex -0.020846 -0.412876 0.004614
   vertex -0.023764 -0.407746 0.005459
  endloop
 endfacet
 facet normal -0.623043 -0.458746 0.633537
  outer loop
   vertex -0.023764 -0.407746 0.005459
   vertex -0.020846 -0.412876 0.004614
   vertex -0.009058 -0.414073 0.01534
  endloop
 endfacet
 facet normal -0.619442 -0.516524 0.591181
  outer loop
   vertex -0.023764 -0.407746 0.005459
   vertex -0.009058 -0.414073 0.01534
   vertex -0.011944 -0.40655 0.018889
  endloop
 endfacet
 facet normal -0.155048 -0.469527 0.869198
  outer loop
   vertex -0.011944 -0.40655 0.018889
   vertex -0.009058 -0.414073 0.01534
   vertex 0.006 -0.415269 0.01738
  endloop
 endfacet
 facet normal -0.148996 -0.321266 -0.935194
  outer loop
   vertex 0.006 -0.415269 0.01738
   vertex 0.006 -0.403302 0.013269
   vertex 0.018263 -0.40501 0.011902
  endloop
 endfacet
 facet normal 0.289088 -0.696336 -0.65692
  outer loop
   vertex 0.006 -0.415269 0.01738
   vertex 0.018263 -0.40501 0.011902
   vertex 0.020788 -0.406891 0.015007
  endloop
 endfacet
 facet normal 0.10179 -0.323205 -0.940839
  outer loop
   vertex -0.009058 -0.414073 0.01534
   vertex 0.006 -0.403302 0.013269
   vertex 0.006 -0.415269 0.01738
  endloop
 endfacet
 facet normal -0.367791 -0.897209 -0.244429
  outer loop
   vertex 0.020788 -0.406891 0.015007
   vertex 0.018263 -0.40501 0.011902
   vertex 0.028176 -0.406719 0.003259
  endloop
 endfacet
 facet normal 0.770741 -0.420664 0.47854
  outer loop
   vertex 0.020788 -0.406891 0.015007
   vertex 0.028176 -0.406719 0.003259
   vertex 0.03197 -0.398514 0.004361
  endloop
 endfacet
 facet normal 0.907661 -0.419704 0
  outer loop
   vertex 0.03197 -0.398514 0.004361
   vertex 0.028176 -0.406719 0.003259
   vertex 0.028176 -0.406719 -0.00962
  endloop
 endfacet
 facet normal 0.907661 -0.419704 0
  outer loop
   vertex 0.03197 -0.398514 0.004361
   vertex 0.028176 -0.406719 -0.00962
   vertex 0.03197 -0.398514 -0.010722
  endloop
 endfacet
 facet normal 0.645748 -0.386998 -0.658211
  outer loop
   vertex 0.03197 -0.398514 -0.010722
   vertex 0.028176 -0.406719 -0.00962
   vertex 0.019616 -0.403472 -0.019927
  endloop
 endfacet
 facet normal 0.645834 -0.341178 -0.683005
  outer loop
   vertex 0.03197 -0.398514 -0.010722
   vertex 0.019616 -0.403472 -0.019927
   vertex 0.022051 -0.392871 -0.02292
  endloop
 endfacet
 facet normal 0.188244 -0.306659 -0.933019
  outer loop
   vertex 0.022051 -0.392871 -0.02292
   vertex 0.019616 -0.403472 -0.019927
   vertex 0.006 -0.400223 -0.023742
  endloop
 endfacet
 facet normal 0.176069 -0.278844 -0.944058
  outer loop
   vertex 0.022051 -0.392871 -0.02292
   vertex 0.006 -0.400223 -0.023742
   vertex 0.006 -0.387229 -0.02758
  endloop
 endfacet
 facet normal -0.350039 -0.265348 -0.898367
  outer loop
   vertex 0.006 -0.387229 -0.02758
   vertex 0.006 -0.400223 -0.023742
   vertex -0.005542 -0.40655 -0.017376
  endloop
 endfacet
 facet normal 0.225669 -0.556946 -0.799302
  outer loop
   vertex 0.006 -0.387229 -0.02758
   vertex -0.005542 -0.40655 -0.017376
   vertex -0.010321 -0.400052 -0.023253
  endloop
 endfacet
 facet normal -0.279156 -0.748894 -0.601023
  outer loop
   vertex -0.010321 -0.400052 -0.023253
   vertex -0.005542 -0.40655 -0.017376
   vertex -0.009466 -0.412876 -0.007671
  endloop
 endfacet
 facet normal 0.183057 -0.754131 -0.630695
  outer loop
   vertex -0.010321 -0.400052 -0.023253
   vertex -0.009466 -0.412876 -0.007671
   vertex -0.020846 -0.412876 -0.010974
  endloop
 endfacet
 facet normal -0 -1 0
  outer loop
   vertex -0.020846 -0.412876 -0.010974
   vertex -0.009466 -0.412876 -0.007671
   vertex -0.009466 -0.412876 0.00131
  endloop
 endfacet
 facet normal -0 -1 0
  outer loop
   vertex -0.020846 -0.412876 -0.010974
   vertex -0.009466 -0.412876 0.00131
   vertex -0.020846 -0.412876 0.004614
  endloop
 endfacet
 facet normal 0.128763 -0.886978 0.443498
  outer loop
   vertex -0.020846 -0.412876 0.004614
   vertex -0.009466 -0.412876 0.00131
   vertex -0.00419 -0.408089 0.009352
  endloop
 endfacet
 facet normal 0.3668 -0.790002 -0.491278
  outer loop
   vertex -0.020846 -0.412876 0.004614
   vertex -0.00419 -0.408089 0.009352
   vertex -0.009058 -0.414073 0.01534
  endloop
 endfacet
 facet normal 0.507327 -0.779782 -0.366823
  outer loop
   vertex -0.009058 -0.414073 0.01534
   vertex -0.00419 -0.408089 0.009352
   vertex 0.006 -0.403302 0.013269
  endloop
 endfacet
 facet normal -0.593135 -0.683066 -0.426159
  outer loop
   vertex 0.006 -0.403302 0.013269
   vertex 0.006 -0.400565 0.008882
   vertex 0.013214 -0.404839 0.005692
  endloop
 endfacet
 facet normal -0.129032 -0.988593 0.0776857
  outer loop
   vertex 0.006 -0.403302 0.013269
   vertex 0.013214 -0.404839 0.005692
   vertex 0.018263 -0.40501 0.011902
  endloop
 endfacet
 facet normal 0.515778 -0.726861 -0.453483
  outer loop
   vertex -0.00419 -0.408089 0.009352
   vertex 0.006 -0.400565 0.008882
   vertex 0.006 -0.403302 0.013269
  endloop
 endfacet
 facet normal -0.453841 -0.821003 0.346385
  outer loop
   vertex 0.018263 -0.40501 0.011902
   vertex 0.013214 -0.404839 0.005692
   vertex 0.016505 -0.409115 -0.000131
  endloop
 endfacet
 facet normal 0.1049 -0.945804 0.307329
  outer loop
   vertex 0.018263 -0.40501 0.011902
   vertex 0.016505 -0.409115 -0.000131
   vertex 0.028176 -0.406719 0.003259
  endloop
 endfacet
 facet normal 0.2011 -0.979571 0
  outer loop
   vertex 0.028176 -0.406719 0.003259
   vertex 0.016505 -0.409115 -0.000131
   vertex 0.016505 -0.409115 -0.00623
  endloop
 endfacet
 facet normal 0.2011 -0.979571 0
  outer loop
   vertex 0.028176 -0.406719 0.003259
   vertex 0.016505 -0.409115 -0.00623
   vertex 0.028176 -0.406719 -0.00962
  endloop
 endfacet
 facet normal 0.17724 -0.980668 -0.0829196
  outer loop
   vertex 0.028176 -0.406719 -0.00962
   vertex 0.016505 -0.409115 -0.00623
   vertex 0.013574 -0.409115 -0.012495
  endloop
 endfacet
 facet normal 0.231439 -0.856186 -0.461933
  outer loop
   vertex 0.028176 -0.406719 -0.00962
   vertex 0.013574 -0.409115 -0.012495
   vertex 0.019616 -0.403472 -0.019927
  endloop
 endfacet
 facet normal 0.233636 -0.856445 -0.460343
  outer loop
   vertex 0.019616 -0.403472 -0.019927
   vertex 0.013574 -0.409115 -0.012495
   vertex 0.006 -0.409115 -0.016339
  endloop
 endfacet
 facet normal 0.0625307 -0.638575 -0.767015
  outer loop
   vertex 0.019616 -0.403472 -0.019927
   vertex 0.006 -0.409115 -0.016339
   vertex 0.006 -0.400223 -0.023742
  endloop
 endfacet
 facet normal -0.141558 -0.633384 -0.76078
  outer loop
   vertex 0.006 -0.400223 -0.023742
   vertex 0.006 -0.409115 -0.016339
   vertex -0.00287 -0.410539 -0.013503
  endloop
 endfacet
 facet normal -0.0100907 -0.700033 -0.71404
  outer loop
   vertex 0.006 -0.400223 -0.023742
   vertex -0.00287 -0.410539 -0.013503
   vertex -0.005542 -0.40655 -0.017376
  endloop
 endfacet
 facet normal -0.145272 -0.737579 -0.659449
  outer loop
   vertex -0.005542 -0.40655 -0.017376
   vertex -0.00287 -0.410539 -0.013503
   vertex -0.006558 -0.412772 -0.010193
  endloop
 endfacet
 facet normal -0.503004 -0.616801 -0.605428
  outer loop
   vertex -0.005542 -0.40655 -0.017376
   vertex -0.006558 -0.412772 -0.010193
   vertex -0.009466 -0.412876 -0.007671
  endloop
 endfacet
 facet normal 0.035744 -0.999361 0
  outer loop
   vertex -0.009466 -0.412876 -0.007671
   vertex -0.006558 -0.412772 -0.010193
   vertex -0.006558 -0.412772 -0.003417
  endloop
 endfacet
 facet normal 0.035744 -0.999361 0
  outer loop
   vertex -0.009466 -0.412876 -0.007671
   vertex -0.006558 -0.412772 -0.003417
   vertex -0.009466 -0.412876 0.00131
  endloop
 endfacet
 facet normal 0.236897 -0.96352 0.124536
  outer loop
   vertex -0.009466 -0.412876 0.00131
   vertex -0.006558 -0.412772 -0.003417
   vertex -0.001574 -0.410312 0.006135
  endloop
 endfacet
 facet normal -0.0548645 -0.841762 0.537053
  outer loop
   vertex -0.009466 -0.412876 0.00131
   vertex -0.001574 -0.410312 0.006135
   vertex -0.00419 -0.408089 0.009352
  endloop
 endfacet
 facet normal 0.431424 -0.539105 0.723353
  outer loop
   vertex -0.00419 -0.408089 0.009352
   vertex -0.001574 -0.410312 0.006135
   vertex 0.006 -0.400565 0.008882
  endloop
 endfacet
 facet normal -0.409929 -0.87755 0.248724
  outer loop
   vertex 0.006 -0.400565 0.008882
   vertex 0.006 -0.403984 -0.003181
   vertex 0.013214 -0.404839 0.005692
  endloop
 endfacet
 facet normal 0.751538 -0.634689 0.17989
  outer loop
   vertex -0.001574 -0.410312 0.006135
   vertex 0.006 -0.403984 -0.003181
   vertex 0.006 -0.400565 0.008882
  endloop
 endfacet
 facet normal -0.489159 -0.81157 0.319497
  outer loop
   vertex 0.013214 -0.404839 0.005692
   vertex 0.006 -0.403984 -0.003181
   vertex 0.016505 -0.409115 -0.000131
  endloop
 endfacet
 facet normal -0.438879 -0.898546 0
  outer loop
   vertex 0.016505 -0.409115 -0.000131
   vertex 0.006 -0.403984 -0.003181
   vertex 0.016505 -0.409115 -0.00623
  endloop
 endfacet
 facet normal -0.388478 -0.903357 0.181744
  outer loop
   vertex 0.016505 -0.409115 -0.00623
   vertex 0.006 -0.403984 -0.003181
   vertex 0.013574 -0.409115 -0.012495
  endloop
 endfacet
 facet normal -0.18133 -0.916225 0.357283
  outer loop
   vertex 0.013574 -0.409115 -0.012495
   vertex 0.006 -0.403984 -0.003181
   vertex 0.006 -0.409115 -0.016339
  endloop
 endfacet
 facet normal 0.25682 -0.900421 0.35112
  outer loop
   vertex 0.006 -0.409115 -0.016339
   vertex 0.006 -0.403984 -0.003181
   vertex -0.00287 -0.410539 -0.013503
  endloop
 endfacet
 facet normal 0.552137 -0.832009 0.0538997
  outer loop
   vertex -0.00287 -0.410539 -0.013503
   vertex 0.006 -0.403984 -0.003181
   vertex -0.006558 -0.412772 -0.010193
  endloop
 endfacet
 facet normal 0.573348 -0.819312 0
  outer loop
   vertex -0.006558 -0.412772 -0.010193
   vertex 0.006 -0.403984 -0.003181
   vertex -0.006558 -0.412772 -0.003417
  endloop
 endfacet
 facet normal 0.572211 -0.815307 -0.0885929
  outer loop
   vertex -0.006558 -0.412772 -0.003417
   vertex 0.006 -0.403984 -0.003181
   vertex -0.001574 -0.410312 0.006135
  endloop
 endfacet
endsolid
